<svg width="30" height="30" viewBox="0 0 30 30" fill="none" xmlns="http://www.w3.org/2000/svg">
<path d="M28.3531 22.0985C27.9248 21.7975 23.2382 18.6813 22.6638 18.3304C22.4135 18.1773 22.1082 18.1025 21.7761 18.1025C21.3478 18.1025 20.8735 18.2272 20.4107 18.4708C19.9596 18.7084 18.5933 19.4858 17.9248 19.8678C17.3359 19.4543 15.9526 18.3947 13.7729 16.2129C11.6069 14.0477 10.5376 12.653 10.1216 12.061C10.5026 11.393 11.2792 10.0267 11.5154 9.57691C11.963 8.72903 12.0138 7.88247 11.6506 7.31153C11.3098 6.77341 8.20618 2.06678 7.88593 1.62403C7.58449 1.20622 7.04331 0.980469 6.45621 0.980469C5.9929 0.980469 5.50158 1.12047 5.07546 1.41709C5.03433 1.44641 0.916556 4.43191 0.971243 6.12984C1.12308 10.8995 5.75793 16.5047 9.61928 20.3674C13.4806 24.2301 19.0863 28.8663 23.8748 29.0189H23.9142C25.5907 29.0189 28.5377 24.9533 28.5661 24.913C29.3392 23.8083 29.0574 22.5921 28.3531 22.0985ZM27.1442 23.8937C26.0343 25.4311 24.4584 27.0367 23.8416 27.2664C20.5594 27.1124 15.9539 24.228 10.8566 19.1298C5.75968 14.0312 2.87568 9.43086 2.72343 6.15968C2.94481 5.54105 4.5504 3.95511 6.07378 2.85349C6.18665 2.77561 6.32578 2.73055 6.45572 2.73055C6.48456 2.73055 6.50863 2.73318 6.52747 2.73668C7.01965 3.45199 9.66172 7.45164 10.1412 8.1993C10.143 8.27805 10.1163 8.47793 9.96622 8.76321C9.80653 9.06727 9.30909 9.95365 8.60165 11.1935L8.05128 12.1582L8.68959 13.0673C9.16559 13.7433 10.2978 15.2128 12.5348 17.4502C14.7813 19.6976 16.2457 20.8264 16.919 21.2998L17.8281 21.9381L18.7928 21.3868C19.7277 20.8526 20.8573 20.2126 21.2249 20.0196C21.5197 19.8643 21.7214 19.8521 21.7761 19.8521C21.7849 19.8521 21.7923 19.8521 21.7984 19.853C22.4682 20.2734 26.5545 22.9863 27.2759 23.4811C27.2877 23.5511 27.2768 23.7034 27.1442 23.8937ZM18.6047 11.2951C18.7175 11.4092 18.8764 11.4789 19.0527 11.474L19.373 11.4666C19.3791 11.4666 19.3834 11.464 19.3905 11.4636L25.6659 11.4911C26.019 11.4828 26.3117 11.1905 26.32 10.8366L26.3204 10.3877C26.2671 9.9712 25.9393 9.72708 25.5858 9.73495L21.4432 9.72402L28.6059 2.57089C28.9476 2.2292 28.9476 1.67486 28.6059 1.33318C28.2642 0.991926 27.7103 0.991926 27.3687 1.33318L20.1862 8.50599L20.2103 4.27227C20.2182 3.9188 19.9377 3.6108 19.5842 3.61911L19.1354 3.61952C18.781 3.62827 18.4883 3.83874 18.4808 4.19224L18.4629 10.5089C18.4629 10.515 18.487 10.5193 18.487 10.5255L18.452 10.8457C18.4485 11.0233 18.49 11.1813 18.6047 11.2951Z" fill="#959595"/>
</svg>
