<svg width="36" height="36" viewBox="0 0 36 36" fill="none" xmlns="http://www.w3.org/2000/svg">
<path d="M18 6C19.5913 6 21.1174 6.63214 22.2426 7.75736C23.3679 8.88258 24 10.4087 24 12C24 13.5913 23.3679 15.1174 22.2426 16.2426C21.1174 17.3679 19.5913 18 18 18C16.4087 18 14.8826 17.3679 13.7574 16.2426C12.6321 15.1174 12 13.5913 12 12C12 10.4087 12.6321 8.88258 13.7574 7.75736C14.8826 6.63214 16.4087 6 18 6ZM18 9C17.2044 9 16.4413 9.31607 15.8787 9.87868C15.3161 10.4413 15 11.2044 15 12C15 12.7956 15.3161 13.5587 15.8787 14.1213C16.4413 14.6839 17.2044 15 18 15C18.7956 15 19.5587 14.6839 20.1213 14.1213C20.6839 13.5587 21 12.7956 21 12C21 11.2044 20.6839 10.4413 20.1213 9.87868C19.5587 9.31607 18.7956 9 18 9ZM18 19.5C22.005 19.5 30 21.495 30 25.5V30H6V25.5C6 21.495 13.995 19.5 18 19.5ZM18 22.35C13.545 22.35 8.85 24.54 8.85 25.5V27.15H27.15V25.5C27.15 24.54 22.455 22.35 18 22.35Z" fill="#959595"/>
</svg>
