<svg width="36" height="36" viewBox="0 0 36 36" fill="none" xmlns="http://www.w3.org/2000/svg">
<path d="M29.2504 3.375H23.6254C23.3271 3.375 23.0409 3.49353 22.8299 3.7045C22.6189 3.91548 22.5004 4.20163 22.5004 4.5C22.5004 4.79837 22.6189 5.08452 22.8299 5.29549C23.0409 5.50647 23.3271 5.625 23.6254 5.625H26.535L22.9982 9.16172C21.9597 8.19392 20.7071 7.4855 19.3425 7.09431C17.9779 6.70312 16.5402 6.64026 15.1467 6.91086C13.7532 7.18146 12.4434 7.77784 11.3245 8.65131C10.2055 9.52477 9.30895 10.6505 8.70815 11.9367C8.10735 13.2228 7.81929 14.6328 7.8675 16.0515C7.91571 17.4702 8.29883 18.8574 8.98556 20.0998C9.67229 21.3421 10.6432 22.4044 11.8189 23.1999C12.9946 23.9954 14.3418 24.5015 15.7504 24.6769V27H12.3754C12.0771 27 11.7909 27.1185 11.5799 27.3295C11.3689 27.5405 11.2504 27.8266 11.2504 28.125C11.2504 28.4234 11.3689 28.7095 11.5799 28.9205C11.7909 29.1315 12.0771 29.25 12.3754 29.25H15.7504V32.625C15.7504 32.9234 15.8689 33.2095 16.0799 33.4205C16.2909 33.6315 16.5771 33.75 16.8754 33.75C17.1738 33.75 17.4599 33.6315 17.6709 33.4205C17.8819 33.2095 18.0004 32.9234 18.0004 32.625V29.25H21.3754C21.6738 29.25 21.9599 29.1315 22.1709 28.9205C22.3819 28.7095 22.5004 28.4234 22.5004 28.125C22.5004 27.8266 22.3819 27.5405 22.1709 27.3295C21.9599 27.1185 21.6738 27 21.3754 27H18.0004V24.6769C19.5084 24.4885 20.944 23.9209 22.173 23.0271C23.402 22.1333 24.3844 20.9425 25.0283 19.5659C25.6722 18.1894 25.9565 16.6721 25.8548 15.1558C25.7531 13.6396 25.2686 12.1738 24.4467 10.8956L28.1254 7.21547V10.125C28.1254 10.4234 28.2439 10.7095 28.4549 10.9205C28.6659 11.1315 28.9521 11.25 29.2504 11.25C29.5488 11.25 29.8349 11.1315 30.0459 10.9205C30.2569 10.7095 30.3754 10.4234 30.3754 10.125V4.5C30.3754 4.20163 30.2569 3.91548 30.0459 3.7045C29.8349 3.49353 29.5488 3.375 29.2504 3.375ZM16.8754 22.5C15.5404 22.5 14.2354 22.1041 13.1253 21.3624C12.0153 20.6207 11.1501 19.5665 10.6392 18.3331C10.1283 17.0997 9.99467 15.7425 10.2551 14.4331C10.5156 13.1238 11.1584 11.921 12.1024 10.977C13.0465 10.033 14.2492 9.39015 15.5586 9.1297C16.8679 8.86925 18.2251 9.00292 19.4585 9.51381C20.6919 10.0247 21.7461 10.8899 22.4878 11.9999C23.2295 13.1099 23.6254 14.415 23.6254 15.75C23.6236 17.5396 22.9118 19.2554 21.6463 20.5209C20.3809 21.7864 18.6651 22.4981 16.8754 22.5Z" fill="#959595"/>
</svg>
